<svg id="bookmark" width="36" height="32" viewBox="0 0 36 32" fill="none" xmlns="http://www.w3.org/2000/svg">
    <path id="path1" d="M17.3669 31.4822C17.7352 31.7834 18.2648 31.7834 18.6331 31.4822L31.4195 21.0241C32.147 20.429 31.7262 19.25 30.7863 19.25H5.21366C4.2738 19.25 3.85304 20.429 4.58055 21.0241L17.3669 31.4822Z" fill="black"/>
    <rect x="4" width="28" height="21" rx="1" fill="black"/>
    <path id="path2" d="M12.3016 15.2574L17.2426 20.6515C17.4477 20.8753 17.7184 21 18 21C18.2816 21 18.5523 20.8753 18.7574 20.6515L23.6984 15.2574C24.5297 14.3525 25 13.0831 25 11.7562V11.5707C25 9.33571 23.6191 7.43003 21.7352 7.06232C20.4883 6.81932 19.2195 7.29574 18.3281 8.3381L18 8.7218L17.6719 8.3381C16.7805 7.29574 15.5117 6.81932 14.2648 7.06232C12.3809 7.43003 11 9.33571 11 11.5707V11.7562C11 13.0831 11.4703 14.3525 12.3016 15.2574Z" fill="#d0231e"/>
</svg>
